<svg xmlns="http://www.w3.org/2000/svg" width="66.67" height="100" viewBox="0 0 66.67 100"><title>figma</title><g id="ecec2187-b0c2-4470-a55a-17630cc6b26d" data-name="Layer 2"><g id="a6689a99-0bb1-4da9-b43a-b0b167bd77d7" data-name="Layer 1"><path id="f4719dc6-e9c3-4506-92e3-8ef2e8dc3b66" data-name="path0 fill" d="M16.67,100A16.67,16.67,0,0,0,33.33,83.33V66.67H16.67a16.67,16.67,0,1,0,0,33.33Z" fill="#0acf83"/><path id="b1134fe6-b06b-430b-b706-00dc57ecd3bc" data-name="path1 fill" d="M0,50A16.68,16.68,0,0,1,16.67,33.33H33.33V66.67H16.67A16.68,16.68,0,0,1,0,50Z" fill="#a259ff"/><path id="b1948994-78dc-4a26-8ba1-906743bcd3f9" data-name="path1 fill" d="M0,16.67A16.68,16.68,0,0,1,16.67,0H33.33V33.33H16.67A16.67,16.67,0,0,1,0,16.67Z" fill="#f24e1e"/><path id="e7923537-a561-4aee-b773-0ca782ef4768" data-name="path2 fill" d="M33.33,0H50a16.67,16.67,0,1,1,0,33.33H33.33Z" fill="#ff7262"/><path id="e49102db-5f32-4fc2-9005-46d1d47fbf9c" data-name="path3 fill" d="M66.67,50A16.67,16.67,0,1,1,50,33.33,16.68,16.68,0,0,1,66.67,50Z" fill="#1abcfe"/></g></g></svg>