<svg xmlns="http://www.w3.org/2000/svg" xmlns:xlink="http://www.w3.org/1999/xlink" width="102.56" height="100" viewBox="0 0 102.56 100"><defs><radialGradient id="a98c6a6e-ee9e-4591-b086-fe3de0162632" cx="-563.1" cy="149.06" r="0.03" gradientTransform="matrix(2291.67, 0, 0, -2218.75, 1290480.04, 330743.1)" gradientUnits="userSpaceOnUse"><stop offset="0" stop-color="#423325" stop-opacity="0.98"/><stop offset="1" stop-color="#1c0a00"/></radialGradient></defs><title>illustrator</title><g id="e8541a9a-cae3-4ff8-b965-a567d0bc3ad4" data-name="Layer 2"><g id="f2670c4f-e29c-4972-a391-0278c9fecbe6" data-name="Layer 1"><path d="M4.27,4.27h94V95.73h-94Z" fill="url(#a98c6a6e-ee9e-4591-b086-fe3de0162632)"/><path d="M4.27,4.27h94V95.73h-94ZM0,100H102.56V0H0ZM67.18,35.64c0-.34.13-.51.51-.51H74.4c.34,0,.51.13.51.51V69.36c0,.34-.08.51-.51.51H67.78c-.43,0-.56-.21-.56-.55V35.64Zm-.47-9.7a4.36,4.36,0,0,1,8.72,0A4.09,4.09,0,0,1,71,30.3,4,4,0,0,1,66.71,25.94ZM47.48,49.7c-1.2-4.74-4-15.08-5.09-20.08h-.08c-.9,5-3.16,13.46-5,20.08ZM35.6,56.62,32.22,69.44c-.08.35-.21.43-.64.43H25.3c-.43,0-.51-.13-.43-.64L37,26.75a14.16,14.16,0,0,0,.43-3.54c0-.3.12-.43.34-.43h9c.3,0,.43.08.51.43L60.85,69.32c.09.34,0,.55-.34.55H53.42c-.34,0-.56-.08-.64-.38L49.27,56.62Z" fill="#ff7f18"/></g></g></svg>