<svg xmlns="http://www.w3.org/2000/svg" width="100" height="100" viewBox="0 0 100 100"><title>invision</title><g id="a004123f-245e-4512-b07b-9023c468c37e" data-name="Layer 2"><g id="ee8dc856-b6da-468e-bb57-cdec6ae3bb15" data-name="Layer 1"><path d="M90.93,0H9.07A9.07,9.07,0,0,0,0,9.07V90.93A9.07,9.07,0,0,0,9.07,100H90.93A9.07,9.07,0,0,0,100,90.93V9.07A9.07,9.07,0,0,0,90.93,0" fill="#dc395f"/><path d="M33.42,31.46a6,6,0,1,0-6.11-6,6,6,0,0,0,6.11,6M20.75,63.7a20.52,20.52,0,0,0-.54,4.52c0,5.3,2.88,8.82,9,8.82,5.06,0,9.17-3,12.13-7.87l-1.81,7.25H49.58l5.75-23.06c1.44-5.84,4.23-8.87,8.45-8.87,3.32,0,5.39,2.07,5.39,5.48a10.72,10.72,0,0,1-.45,3.23l-3,10.6a16.29,16.29,0,0,0-.62,4.49c0,5,3,8.72,9.16,8.72,5.3,0,9.52-3.42,11.86-11.59l-4-1.53c-2,5.48-3.68,6.47-5,6.47s-2.06-.9-2.06-2.69a11.87,11.87,0,0,1,.45-2.79l2.87-10.33a22.67,22.67,0,0,0,1-6.55c0-7.72-4.67-11.76-10.33-11.76-5.3,0-10.69,4.79-13.39,9.82l2-9H42.31L40.15,45h7.19L42.91,62.7c-3.47,7.73-9.86,7.85-10.66,7.67-1.31-.3-2.15-.8-2.15-2.5a17.36,17.36,0,0,1,.62-4.12L37.46,37H20.39L18.24,45h7.09L20.75,63.7" fill="#fff"/></g></g></svg>