<svg xmlns="http://www.w3.org/2000/svg" xmlns:xlink="http://www.w3.org/1999/xlink" width="200" height="195" viewBox="0 0 200 195"><defs><radialGradient id="b0d37367-e090-4ef2-a06a-ab64b68badd8" cx="623.95" cy="-793.05" r="0.06" gradientTransform="matrix(2225.31, 0, 0, -2154.5, -1388422.25, -1708581.05)" gradientUnits="userSpaceOnUse"><stop offset="0" stop-color="#34364e" stop-opacity="0.98"/><stop offset="1" stop-color="#0c0824"/></radialGradient></defs><title>photoshop</title><g id="f3ffd407-2454-4b6c-a763-e8b690a2b426" data-name="Layer 2"><g id="f1edea1c-4590-49d6-9b62-910a63cb8524" data-name="Layer 1"><path d="M8.33,8.33H191.67V186.67H8.33Z" fill="url(#b0d37367-e090-4ef2-a06a-ab64b68badd8)"/><path d="M8.33,8.33H191.67V186.67H8.33ZM0,195H200V0H0ZM134.83,80c-6.58,0-8.83,3.33-8.83,6.08,0,3,1.5,5.09,10.33,9.67,13.09,6.33,17.17,12.42,17.17,21.33,0,13.34-10.17,20.5-23.92,20.5-7.25,0-13.5-1.5-17.08-3.58-.58-.25-.67-.67-.67-1.33V120.42c0-.84.42-1.09,1-.67a30.91,30.91,0,0,0,16.75,4.92c6.59,0,9.34-2.75,9.34-6.5,0-3-1.92-5.67-10.34-10-11.83-5.67-16.75-11.42-16.75-21,0-10.75,8.42-19.67,23-19.67,7.17,0,12.17,1.08,14.92,2.33a1.85,1.85,0,0,1,.83,1.67V82.92c0,.66-.41,1.08-1.25.83-3.66-2.33-9.08-3.75-14.5-3.75ZM63.17,89.92c1.91.16,3.41.16,6.75.16,9.75,0,18.91-3.41,18.91-16.66,0-10.59-6.58-15.92-17.66-15.92-3.34,0-6.5.17-8,.25ZM48.33,45.67c0-.59,1.17-1,1.84-1,5.33-.25,13.25-.42,21.5-.42,23.08,0,32.08,12.67,32.08,28.83,0,21.17-15.33,30.25-34.17,30.25-3.16,0-4.25-.16-6.5-.16v32c0,.66-.25,1-1,1H49.33c-.66,0-1-.25-1-1V45.67Z" fill="#31c5f0"/></g></g></svg>