<svg xmlns="http://www.w3.org/2000/svg" width="110.51" height="100" viewBox="0 0 110.51 100"><title>sketch</title><g id="a52d153b-9b52-4bc7-9e7d-21efb95bd345" data-name="Layer 2"><g id="b3263fd0-d9e4-4ecb-a0a4-ff21e1e01775" data-name="Layer 1"><g id="b83244a4-b715-4ab0-9f76-292513dab54a" data-name="baeb5b07-6202-4928-9704-31c88a879bca"><g id="b9cc6b0b-aba6-4c4c-8340-13c9074374e4" data-name="ab19430e-3525-4bd8-bf0b-c9abd05bd67e"><path d="M24.11,3.29,55.25,0,86.4,3.29l24.11,32.37L55.25,100,0,35.66Z" fill="#fdb300" fill-rule="evenodd"/><polygon points="22.38 35.66 55.25 100 0 35.66 22.38 35.66" fill="#ea6c00" fill-rule="evenodd"/><polygon points="88.13 35.66 55.25 100 110.5 35.66 88.13 35.66" fill="#ea6c00" fill-rule="evenodd"/><polygon points="22.38 35.66 88.13 35.66 55.25 100 22.38 35.66" fill="#fdad00" fill-rule="evenodd"/><polygon points="55.25 0 24.11 3.29 22.38 35.66 55.25 0" fill="#fdd231" fill-rule="evenodd"/><polygon points="55.25 0 86.4 3.29 88.13 35.66 55.25 0" fill="#fdd231" fill-rule="evenodd"/><polygon points="110.51 35.66 86.4 3.29 88.13 35.66 110.51 35.66" fill="#fdad00" fill-rule="evenodd"/><polygon points="0 35.66 24.11 3.29 22.38 35.66 0 35.66" fill="#fdad00" fill-rule="evenodd"/><polygon points="55.25 0 22.38 35.66 88.13 35.66 55.25 0" fill="#feeeb7" fill-rule="evenodd"/></g></g></g></g></svg>