<svg xmlns="http://www.w3.org/2000/svg" width="102.56" height="100" viewBox="0 0 102.56 100"><title>xd</title><g id="ebebafc2-e0a6-4646-bbef-f6c411e4973d" data-name="Layer 2"><g id="a6ad64ef-d5f8-4609-9ad4-2a34e2ae9f0d" data-name="Layer 1"><path d="M84.4,100H18.16A18.15,18.15,0,0,1,0,81.84V18.16A18.15,18.15,0,0,1,18.16,0H84.4a18.14,18.14,0,0,1,18.16,18.16V81.84A18.14,18.14,0,0,1,84.4,100Z" fill="#ff26be"/><path d="M82.78,95.73h-63A15.55,15.55,0,0,1,4.27,80.21V19.79A15.55,15.55,0,0,1,19.79,4.27h63A15.51,15.51,0,0,1,98.25,19.79V80.17A15.49,15.49,0,0,1,82.78,95.73Z" fill="#2e001f"/><path d="M40.55,46.79l12,23c.21.35.09.69-.26.69H44.82a.83.83,0,0,1-.89-.55c-2.74-5.65-5.52-11.29-8.38-17.35h-.09C32.9,58.29,30.08,64.32,27.34,70a.81.81,0,0,1-.77.47h-7c-.43,0-.47-.34-.26-.6L31,47.52,19.66,25a.35.35,0,0,1,.25-.6h7.36a.67.67,0,0,1,.76.47c2.69,5.64,5.43,11.46,8,17.14h.09c2.48-5.64,5.22-11.5,7.87-17.1.21-.34.34-.55.77-.55h6.88c.34,0,.47.26.26.6Zm14.07,7c0-10,6.62-17.74,17.13-17.74a18.15,18.15,0,0,1,2.23.09V24.79a.42.42,0,0,1,.42-.43h6.76c.34,0,.42.13.42.34V63.93a29.55,29.55,0,0,0,.22,4.19c0,.26-.09.34-.34.47a25.35,25.35,0,0,1-10.95,2.48c-9.27,0-15.9-5.68-15.89-17.31ZM74,42.82a6.39,6.39,0,0,0-2.47-.42c-5.39,0-9.15,4.14-9.15,11,0,7.87,3.85,11,8.68,11A8.12,8.12,0,0,0,74,64V42.82Z" fill="#ffd9f2"/></g></g></svg>